<?xml version="1.0" standalone="no"?>
<!DOCTYPE svg PUBLIC "-//W3C//DTD SVG 1.1//EN" "http://www.w3.org/Graphics/SVG/1.1/DTD/svg11.dtd" >
<svg xmlns="http://www.w3.org/2000/svg">
<metadata>Generated by IcoMoon</metadata>
<defs>
<font id="alchemy-icons" horiz-adv-x="1024">
<font-face units-per-em="1024" ascent="960" descent="-64" />
<missing-glyph horiz-adv-x="1024" />
<glyph unicode="&#x20;" horiz-adv-x="512" d="" />
<glyph unicode="&#xe900;" glyph-name="add" d="M1024 448c0 282.77-229.23 512-512 512s-512-229.23-512-512c0-282.77 229.23-512 512-512s512 229.23 512 512zM768 384h-192v-192h-128v192h-192v128h192v192h128v-192h192z" />
<glyph unicode="&#xe901;" glyph-name="arrow-doubled" d="M640 448l-448 448-64-64 384-384-384-384 64-64 448 448zM960 448l-448 448-64-64 384-384-384-384 64-64 448 448z" />
<glyph unicode="&#xe902;" glyph-name="arrow" d="M768 448l-448 448-64-64 384-384-384-384 64-64 448 448z" />
<glyph unicode="&#xe903;" glyph-name="checkmark" d="M192 640l-128-128 384-384 512 512-128 128-384-384-256 256z" />
<glyph unicode="&#xe904;" glyph-name="clipboard" d="M739.84 704c0.193-0.005 0.42-0.008 0.647-0.008 14.977 0 27.159 11.963 27.512 26.855l0.001 96.033c-0.354 14.924-12.536 26.888-27.513 26.888-0.228 0-0.455-0.003-0.681-0.008l-88.286 0.001c-1.826 7.705-4.021 14.323-6.716 20.679l-4.804 6.841-5.12 14.72-5.12 4.48-7.68 10.24-6.4 6.4-9.6 8.96-7.68 5.76-10.24 7.040-12.16 5.12-8.32 5.12-9.6 3.2-13.44 3.84-8.96 3.84c-7.119 1.259-15.316 1.978-23.68 1.978s-16.561-0.72-24.531-2.1l-8.109 0.122-13.44-7.68-9.6-3.2-8.32-5.12-12.16-5.12-10.24-7.040-7.68-5.76-9.6-8.32-6.4-6.4-7.68-10.88-5.12-4.48-5.12-14.72-3.84-7.68c-2.379-5.517-4.574-12.135-6.222-18.966l-89.778-0.874c-0.193 0.005-0.42 0.008-0.647 0.008-14.977 0-27.159-11.963-27.512-26.855l-0.001-96.033c0.354-14.924 12.536-26.888 27.513-26.888 0.228 0 0.455 0.003 0.681 0.008zM896 832h-64v-101.12c-0.362-50.27-41.197-90.882-91.518-90.882-0.226 0-0.451 0.001-0.677 0.002h-455.645c-0.191-0.001-0.416-0.002-0.642-0.002-50.321 0-91.156 40.612-91.518 90.848v101.154h-64c-35.346 0-64-28.654-64-64v-768c0-35.346 28.654-64 64-64h768c35.346 0 64 28.654 64 64v768c0 35.346-28.654 64-64 64zM384 256h-128v64h128zM576 256h-128v64h128zM768 256h-128v64h128z" />
<glyph unicode="&#xe905;" glyph-name="close" d="M896 755.2l-76.8 76.8-307.2-307.2-307.2 307.2-76.8-76.8 307.2-307.2-307.2-307.2 76.8-76.8 307.2 307.2 307.2-307.2 76.8 76.8-307.2 307.2 307.2 307.2z" />
<glyph unicode="&#xe906;" glyph-name="crop" d="M704 572.16v-252.16h128v360.96c0.24 2.493 0.376 5.391 0.376 8.32s-0.137 5.827-0.404 8.686l128.028 134.034-64 64-135.040-128c-2.493 0.24-5.391 0.376-8.32 0.376s-5.827-0.137-8.686-0.404l-359.954 0.028v-128h252.16l-316.16-316.16v572.16h-128v-128h-128v-128h128v-384c4.787-68.681 59.319-123.213 127.567-127.976l384.433-0.024v-128h128v128h128v128h-572.16z" />
<glyph unicode="&#xe907;" glyph-name="cross" d="M896 704l-128 128-256-256-256 256-128-128 256-256-256-256 128-128 256 256 256-256 128 128-256 256 256 256z" />
<glyph unicode="&#xe908;" glyph-name="cut" d="M531.2 448c0-10.604-8.596-19.2-19.2-19.2s-19.2 8.596-19.2 19.2c0 10.604 8.596 19.2 19.2 19.2s19.2-8.596 19.2-19.2zM512 371.2l268.8-268.8h115.2v38.4l-474.88 474.88c8.889 18.578 14.081 40.382 14.081 63.398 0 0.212 0 0.423-0.001 0.635-0.725 84.246-69.214 152.287-153.595 152.287-84.831 0-153.6-68.769-153.6-153.6 0-84.829 68.766-153.597 153.594-153.6 0.179-0.001 0.391-0.001 0.602-0.001 23.016 0 44.82 5.192 64.304 14.469l88.694-91.268-90.88-90.88c-18.578 8.889-40.382 14.081-63.398 14.081-0.212 0-0.423 0-0.635-0.001-84.798 0-153.567-68.769-153.567-153.6s68.769-153.6 153.6-153.6c84.831 0 153.6 68.769 153.6 153.6 0.001 0.179 0.001 0.39 0.001 0.602 0 23.016-5.192 44.82-14.469 64.304zM281.6 601.6c-42.415 0-76.8 34.385-76.8 76.8s34.385 76.8 76.8 76.8c42.415 0 76.8-34.385 76.8-76.8s-34.385-76.8-76.8-76.8zM512 467.2c10.604 0 19.2-8.596 19.2-19.2s-8.596-19.2-19.2-19.2c-10.604 0-19.2 8.596-19.2 19.2s8.596 19.2 19.2 19.2zM281.6 140.8c-42.415 0-76.8 34.385-76.8 76.8s34.385 76.8 76.8 76.8c42.415 0 76.8-34.385 76.8-76.8s-34.385-76.8-76.8-76.8zM627.2 486.4l268.8 268.8v38.4h-115.2l-230.4-230.4 76.8-76.8z" />
<glyph unicode="&#xe909;" glyph-name="dashboard" d="M556.373 660.053l-170.667 171.947-235.947-61.013-64.427-232.96 171.093-171.52 235.947 61.013 64 232.533zM351.573 338.347l-36.693-130.987 96.427-96.427 132.267 34.56 36.267 130.56-96 96.427-132.267-34.133zM595.627 586.667l-50.773-184.32 135.253-136.107 186.453 48.64 51.2 184.32-135.68 135.68-186.453-48.213z" />
<glyph unicode="&#xe90a;" glyph-name="deselect-all" d="M960 640h-256v256c0 35.346-28.654 64-64 64h-576c-35.346 0-64-28.654-64-64v-576c0-35.346 28.654-64 64-64h256v-256c0-35.346 28.654-64 64-64h576c35.346 0 64 28.654 64 64v576c0 35.346-28.654 64-64 64zM320 576v-97.28l-16.64-16.64-196.48 197.12 78.72 79.36 117.76-118.4 236.8 236.16 78.72-78.72-137.6-137.6h-97.28c-35.346 0-64-28.654-64-64zM960 0h-576v576h576z" />
<glyph unicode="&#xe90b;" glyph-name="destroy" d="M584.96 896h-209.92l-55.040-64-256-12.8v-115.2h832v115.2l-256 12.8-55.040 64zM128 640v-592.64c-0.011-0.58-0.017-1.264-0.017-1.95 0-59.548 47.559-107.988 106.765-109.408l491.012-0.003c59.057 1.772 106.258 50.071 106.258 109.394 0 0.691-0.006 1.381-0.019 2.070l0.002 592.537zM672 192l-64-64-128 128-128-128-64 64 128 128-128 128 64 64 128-128 128 128 64-64-128-128z" />
<glyph unicode="&#xe90c;" glyph-name="download" d="M618.88 896l53.12-277.12h160l-320-320-320 320h160l53.12 277.12h213.76zM978.56 301.44l-127.36 146.56h-90.24l135.040-192h-192l-64-128h-256l-64 128h-192l135.040 192h-90.24l-128-146.56c-19.799-22.427-31.886-52.069-31.886-84.535 0-8.813 0.891-17.417 2.587-25.729l33.14-191.176c9.816-35.875 41.281-62.13 79.159-63.992l768.201-0.008c38.079 1.87 69.544 28.125 79.218 63.394l33.422 192.606c1.482 7.31 2.33 15.712 2.33 24.313 0 32.744-12.295 62.616-32.519 85.251z" />
<glyph unicode="&#xe90d;" glyph-name="dropdown" d="M320 512h379.52l-190.080 256-189.44-256zM509.44 128l190.080 256h-379.52l189.44-256z" />
<glyph unicode="&#xe90e;" glyph-name="duplicate" d="M64 896h704v-704h-704v704zM960 704h-128v-576h-576v-128h704v704z" />
<glyph unicode="&#xe90f;" glyph-name="edit" d="M672.309 808.296l87.779 87.81 170.188-170.128-87.779-87.81-170.188 170.128zM72.32 37.76l243.2 104.96-138.88 138.88-104.32-243.84zM225.793 361.692l382.403 382.403 170.158-170.158-382.403-382.403-170.158 170.158z" />
<glyph unicode="&#xe910;" glyph-name="exit" d="M268.373 253.44c3.23-3.167 7.658-5.122 12.544-5.122 2.398 0 4.686 0.471 6.776 1.325 6.411 2.575 10.945 8.839 10.974 16.166v105.39h234.667c0.127-0.003 0.277-0.005 0.427-0.005 9.661 0 17.493 7.832 17.493 17.493 0 0.002 0 0.004 0 0.005v160.853c0 0.002 0 0.003 0 0.005 0 9.661-7.832 17.493-17.493 17.493-0.15 0-0.3-0.002-0.449-0.006h-234.645v105.813c-0.029 7.331-4.563 13.595-10.976 16.172-2.088 0.853-4.376 1.324-6.774 1.324-4.885 0-9.314-1.955-12.546-5.125l-206.504-203.517c-3.168-3.166-5.127-7.541-5.127-12.373s1.959-9.207 5.127-12.373zM640 874.667l256-85.333v-640l-256-128v853.333zM469.333 618.667h-85.333v170.667h213.333v-85.333h-128v-85.333zM597.333 149.333h-213.333v170.667h85.333v-85.333h128v-85.333z" />
<glyph unicode="&#xe911;" glyph-name="fullscreen-exit" d="M211.2 657.92l-145.28 145.92 90.24 90.24 144.64-145.28 147.2 147.2v-384h-384l147.2 145.92zM576 896l147.2-147.2 144.64 145.28 90.88-90.24-145.92-145.92 147.2-145.92h-384v384zM211.2 236.8l-147.2 147.2h384v-384l-147.2 145.92-146.56-145.92-90.24 90.24 147.2 146.56zM576 0v384h384l-147.2-147.2 147.2-147.2-90.24-89.6-147.2 145.92z" />
<glyph unicode="&#xe912;" glyph-name="fullscreen" d="M300.8 750.080l145.28-145.92-90.24-90.24-144.64 145.28-147.2-147.2v384h384l-147.2-145.92zM960 512l-147.2 147.2-144.64-145.28-90.88 90.24 145.92 145.92-147.2 145.92h384v-384zM300.8 147.2l147.2-147.2h-384v384l147.2-145.92 146.56 145.92 90.24-90.24-147.2-146.56zM960 384v-384h-384l147.2 147.2-147.2 146.56 90.24 90.24 147.2-145.92z" />
<glyph unicode="&#xe913;" glyph-name="flash" d="M941.44 717.44l-224 224c-11.563 11.472-27.489 18.561-45.070 18.561-0.13 0-0.26 0-0.39-0.001h-543.98c-35.346 0-64-28.654-64-64v-896c0-35.346 28.654-64 64-64h768c35.346 0 64 28.654 64 64v672c0.001 0.11 0.001 0.24 0.001 0.37 0 17.581-7.089 33.507-18.565 45.074zM704 615.68c-73.6 0-109.44-37.76-142.080-106.88h97.28v-107.52h-140.16c-18.621-48.917-42.581-91.209-71.896-129.152-42.551-52.601-108.449-86.694-182.31-86.694-3.107 0-6.2 0.060-9.277 0.18l0.443 106.866c96 0 128 64 170.88 181.76 21.315 62.093 50.171 115.943 86.22 164.096 42.779 52.219 109.040 86.267 183.254 86.267 2.689 0 5.367-0.045 8.034-0.133z" />
<glyph unicode="&#xe914;" glyph-name="goto" d="M277.76-59.52v0c3.394 3.46 5.488 8.206 5.488 13.44s-2.095 9.98-5.491 13.443c-40.954 36.044-67.502 87.62-70.378 145.429 3.823 63.388 32.636 118.889 76.538 157.718 55.922 55.89 192.242 103.25 287.602 135.89v-183.68c0.152-10.487 8.689-18.93 19.198-18.93 5.235 0 9.981 2.095 13.445 5.493l350.077 350.717c3.394 3.46 5.488 8.206 5.488 13.44s-2.095 9.98-5.491 13.443l-348.157 347.517c-3.086 2.208-6.936 3.531-11.096 3.531-9.591 0-17.54-7.033-18.971-16.223l-5.774-165.868c-97.92-51.84-239.36-115.84-305.28-179.84-92.126-82.242-152.007-198.921-159.305-329.638 5.023-123.425 59.953-231.853 144.791-307.423 3.765-3.237 8.129-4.976 12.899-4.976 5.733 0 10.879 2.512 14.397 6.496z" />
<glyph unicode="&#xe915;" glyph-name="hint" d="M512 800c-141.385 0-256-114.615-256-256h128c0 70.692 57.308 128 128 128s128-57.308 128-128c0-128-192-112-192-320h128c0 144 192 160 192 320 0 141.385-114.615 256-256 256zM448 160h128v-128h-128v128z" />
<glyph unicode="&#xe916;" glyph-name="info" d="M308.48 144q-64-161.92 77.44-161.92c71.783 4.703 138.677 19.561 201.269 43.186 90.403 30.173 172.985 70.931 248.727 121.177l-48.077 35.317c-27.606-15.116-59.824-28.803-93.453-39.292-24.954-8.168-49.405-12.973-74.752-14.434q-31.474-0.035-6.514 59.485l97.28 246.4q64 147.2-49.92 147.2c-77.86-5.886-150.102-22.289-217.847-47.857-98.845-31.324-188.219-69.94-272.814-116.2l47.142-37.543c26.383 11.612 59.538 23.597 93.539 33.609 28.769 9.636 54.996 15.721 82.15 18.728q20.791 0.143 1.591-51.697zM666.88 712.32c31.905 28.71 51.878 70.141 51.878 116.238 0 1.21-0.014 2.418-0.041 3.621 0.014 0.435 0.020 1.158 0.020 1.884 0 34.201-13.414 65.269-35.267 88.231-23.168 23.45-55.397 38.007-91.026 38.007-3.084 0-6.142-0.109-9.171-0.324-2.129 0.164-5.097 0.244-8.084 0.244-47.148 0-89.626-19.993-119.419-51.964-28.35-29.045-46.028-68.434-46.808-111.947-0.454-4.125-0.711-8.732-0.711-13.4 0-32.759 12.687-62.554 33.415-84.742 23.422-21.887 55.073-35.37 89.874-35.37 2.808 0 5.595 0.088 8.358 0.261 0.855-0.050 2.307-0.067 3.763-0.067 47.813 0 91.236 18.792 123.288 49.394z" />
<glyph unicode="&#xe917;" glyph-name="language" d="M554.667 789.333h-384v-725.333h85.333v298.667h238.933l17.067-85.333h298.667v426.667h-238.933l-17.067 85.333z" />
<glyph unicode="&#xe918;" glyph-name="leave" d="M995.2 768h-483.2v161.92c0.067 0.755 0.106 1.634 0.106 2.521 0 12.252-7.325 22.793-17.835 27.483-3.449 1.503-7.247 2.333-11.238 2.333-7.978 0-15.181-3.317-20.304-8.648l-454.409-484.489c-5.209-5.493-8.412-12.932-8.412-21.12s3.203-15.627 8.425-21.134l454.387-481.906c5.133-5.34 12.336-8.657 20.313-8.657 3.991 0 7.788 0.83 11.229 2.328 10.462 4.719 17.738 15.231 17.738 27.442 0 0.003 0 0.005 0 0.008v161.92h483.2c15.985 0.355 28.807 13.396 28.807 29.433 0 0.227-0.003 0.454-0.008 0.68l0.001 579.806c0.005 0.193 0.007 0.419 0.007 0.647 0 16.037-12.822 29.079-28.774 29.433zM896 320l-64-64-128 128-128-128-64 64 128 128-128 128 64 64 128-128 128 128 64-64-128-128z" />
<glyph unicode="&#xe919;" glyph-name="library" d="M853.333 704h-341.333l-85.333 85.333h-256c-47.128 0-85.333-38.205-85.333-85.333v-512c0-47.128 38.205-85.333 85.333-85.333h682.667c47.128 0 85.333 38.205 85.333 85.333v426.667c0 47.128-38.205 85.333-85.333 85.333zM213.333 234.667l192 256 149.333-192.427 106.667 128 149.333-191.573z" />
<glyph unicode="&#xe91a;" glyph-name="link" d="M236.8 172.8c-27.079 27.001-43.833 64.344-43.833 105.6s16.754 78.599 43.829 105.596l136.324 135.044-64 64-136.32-135.040c-39.91-42.743-64.413-100.317-64.413-163.613 0-132.548 107.452-240 240-240 63.297 0 120.871 24.504 163.753 64.542l135.541 135.551-64 64-135.68-135.68c-27.001-27.079-64.344-43.833-105.6-43.833s-78.599 16.754-105.596 43.829zM409.6 277.76l271.36 271.36-67.2 68.48-271.36-271.36zM512 787.2l-135.68-135.68 64-64 135.68 135.68c27.025 27.025 64.361 43.741 105.6 43.741 82.479 0 149.341-66.862 149.341-149.341 0-41.239-16.716-78.575-43.741-105.6l-136.32-135.040 64-64 136.32 135.040c39.91 42.743 64.413 100.317 64.413 163.613 0 132.548-107.452 240-240 240-63.297 0-120.871-24.504-163.753-64.542z" />
<glyph unicode="&#xe91b;" glyph-name="mainmenu_dashboard" d="M555.52 616.32l-166.72 167.68-229.76-59.84-63.040-226.88 167.040-167.68 229.76 59.52 62.72 227.2zM361.28 285.44l-35.52-127.36 93.76-94.080 129.28 33.28 35.2 127.68-93.76 94.080-128.96-33.6zM616.96 543.040l-49.6-179.84 132.16-132.48 181.76 47.040 49.6 179.84-131.84 132.48-182.080-47.040z" />
<glyph unicode="&#xe91c;" glyph-name="minus" d="M192 512h640v-128h-640v128z" />
<glyph unicode="&#xe91d;" glyph-name="not-public" d="M248.32 405.12c-21.283 19.177-34.604 46.835-34.604 77.604 0 1.068 0.016 2.132 0.048 3.192-0.004 5.605-0.004 145.765 108.156 167.525 12.118 4.391 26.104 6.93 40.683 6.93 22.216 0 43.054-5.895 61.037-16.207 5.125-4.324 9.531-10.378 12.108-17.32 7.23-4.724 15.894-7.357 25.173-7.357 0.633 0 1.263 0.012 1.889 0.037l89.51 89.597c-9.325-4.754-20.337-7.539-32-7.539s-22.675 2.785-32.408 7.727c-18.748 11.020-31.446 31.437-31.592 54.831-0.015 0.481-0.023 1.023-0.023 1.566 0 14.414 5.883 27.454 15.379 36.85 11.648 1.903 25.55 3.279 39.664 3.824 42.706-0.195 82.937-7.682 120.251-21.245l65.369 68.625c-20.676 10.028-45.137 19.202-70.515 26.159l-3.085 0.721h-15.36l-18.56 3.84c-23.846 4.501-51.278 7.076-79.311 7.076-247.424 0-448-200.576-448-448 0-67.298 14.839-131.129 41.423-188.402zM942.72 563.84c-4.984 19.919-10.245 36.353-16.396 52.345-3.444 8.455-9.844 19.975-15.604 30.855s-10.88 20.48-16.64 30.72l-181.12-181.12c41.6-44.8-15.36-104.96-49.92-140.8l-18.56-19.84 4.48-3.84c11.123-7.718 18.762-19.786 20.457-33.689-0.015-12.677-5.429-23.85-14.018-31.556-14.611-14.553-31.509-26.749-50.124-36.013-6.235-64.502-52.955-99.702-129.115-99.702-22.4 0-45.44 35.84-60.16 67.2l-135.040-134.4c65.918-40.304 145.691-64.17 231.038-64.17 247.424 0 448 200.576 448 448 0 30.401-3.028 60.095-8.799 88.796-2.079 7.374-5.279 16.974-8.479 27.214zM36.486 57.081l863.915 863.915 50.685-50.685-863.915-863.915-50.685 50.685z" />
<glyph unicode="&#xe91e;" glyph-name="not-restricted" d="M440.96 597.76h-128v32.64c13.012 104.086 97.503 184.841 202.206 191.963 42.905-1.241 81.465-15.964 112.475-39.971l50.759 51.528c-43.5 36.172-99.134 59.123-160.018 62.056-146.921-6.454-264.657-120.427-277.027-264.498l-0.075-33.718h-64c-0.192 0.004-0.419 0.006-0.646 0.006-19.571 0-35.478-15.687-35.834-35.172v-266.913zM848.64 597.76h-34.56l-224.64-224.64c0.156-1.726 0.245-3.732 0.245-5.76s-0.089-4.034-0.263-6.017c0.027-0.157 0.032-0.645 0.032-1.134 0-19.946-8.075-38.007-21.134-51.090l-8.319-7.039v-123.52c0-25.273-20.487-45.76-45.76-45.76s-45.76 20.487-45.76 45.76v77.44l-256-256h631.68c0.192-0.004 0.419-0.006 0.646-0.006 19.571 0 35.478 15.687 35.834 35.172v526.753c0 0.061 0.001 0.134 0.001 0.206 0 18.441-13.928 33.63-31.839 35.619zM36.486 57.081l863.915 863.915 50.685-50.685-863.915-863.915-50.685 50.685z" />
<glyph unicode="&#xe91f;" glyph-name="not-visible" d="M170.88 274.56l149.12 151.68c-0.193 3.251-0.303 7.053-0.303 10.88s0.11 7.629 0.327 11.402c-0.002 52.771 21.234 101.099 55.698 136.481-8.253-17.858-13.041-38.701-13.041-60.662 0-17.732 3.122-34.735 8.846-50.49l259.513 260.869c-35.571 10.58-76.489 16.863-118.812 17.278-278.628 0.002-498.148-278.398-507.748-290.558-2.797-3.697-4.48-8.372-4.48-13.44s1.683-9.743 4.521-13.496c49.236-59.905 103.852-112.49 163.975-158.205zM1019.52 434.56c2.797 3.697 4.48 8.372 4.48 13.44s-1.683 9.743-4.521 13.496c-58.697 71.27-125.679 132.762-200.218 184.062l-131.261-125.879c9.347-21.077 15.151-45.593 15.992-71.364 0.025-1.268 0.035-2.391 0.035-3.516 0-106.039-85.961-192-192-192-0.009 0-0.019 0-0.028 0-27.341 0.041-53.299 5.928-76.702 16.477l-90.977-92.637c49.639-20.093 107.18-32.021 167.43-32.638 278.65-0.002 498.17 278.398 507.77 290.558zM657.28 489.6l-113.92-113.92c56.809 13.197 100.723 57.111 113.72 112.9zM89.169 102.414l767.975 767.975 45.255-45.255-767.975-767.975-45.255 45.255z" />
<glyph unicode="&#xe920;" glyph-name="pages" d="M853.333 789.333h-682.667c-47.128 0-85.333-38.205-85.333-85.333v-512c0-47.128 38.205-85.333 85.333-85.333h682.667c47.128 0 85.333 38.205 85.333 85.333v512c0 47.128-38.205 85.333-85.333 85.333zM640 192h-469.333v170.667h469.333zM640 405.333h-469.333v170.667h469.333zM853.333 192h-170.667v384h170.667z" />
<glyph unicode="&#xe921;" glyph-name="pictures" d="M876.8 592h-103.040l-128 154.24-217.6-154.24h-184.32c-0.227 0.001-0.496 0.002-0.765 0.002-36.111 0-68.73-14.954-92.002-39.007-23.756-23.287-38.461-55.662-38.461-91.472 0-0.929 0.010-1.856 0.030-2.781l-0.002-163.062-112.64 304c-1.941 4.638-3.068 10.027-3.068 15.68s1.127 11.042 3.17 15.955c3.742 9.486 11.616 16.941 21.414 20.136l695.924 256.069c4.496 2.183 9.779 3.458 15.36 3.458s10.864-1.276 15.574-3.552c9.345-4.933 16.61-13.237 20.175-23.291zM984.96 499.84c0.013 0 0.029 0 0.045 0 10.876 0 20.66-4.677 27.449-12.13 7.153-7.296 11.551-17.26 11.551-28.252 0-0.203-0.002-0.406-0.004-0.608v-481.889c0.003-0.172 0.004-0.375 0.004-0.578 0-10.991-4.398-20.956-11.53-28.229-6.809-7.476-16.593-12.154-27.469-12.154-0.016 0-0.031 0-0.047 0h-741.118c-0.098-0.001-0.213-0.001-0.328-0.001-10.788 0-20.483 4.683-27.162 12.127-7.156 7.301-11.554 17.265-11.554 28.256 0 0.203 0.002 0.406 0.004 0.608v481.889c-0.003 0.172-0.004 0.375-0.004 0.578 0 10.991 4.398 20.956 11.53 28.229 6.703 7.472 16.397 12.155 27.186 12.155 0.115 0 0.231-0.001 0.346-0.002zM928 37.76v165.12l-74.24 165.12-170.24-64-132.48-133.76-142.080 176-94.72-218.24v-88.32z" />
<glyph unicode="&#xe922;" glyph-name="plus" d="M448 768v-256h-256v-128h256v-256h128v256h256v128h-256v256h-128z" />
<glyph unicode="&#xe923;" glyph-name="public" d="M942.72 563.84c-4.984 19.919-10.245 36.353-16.396 52.345-3.444 8.455-9.844 19.975-15.604 30.855s-12.8 26.24-20.48 38.4-15.36 21.76-23.040 32.64-8.96 13.44-14.080 19.84v0c-58.918 68.495-137.35 118.691-226.642 142.028l-3.118 0.692h-15.36l-18.56 3.84c-23.275 4.287-50.059 6.739-77.414 6.739-247.424 0-448-200.576-448-448s200.576-448 448-448c247.424 0 448 200.576 448 448 0 1.681-0.009 3.359-0.028 5.036-0.010 30.093-3.038 59.726-8.799 88.371-2.079 7.374-5.279 16.974-8.479 27.214zM744.32 580.48c-1.903-0.721-4.103-1.138-6.4-1.138s-4.497 0.417-6.528 1.181c-8.251 1.697-17.88 2.693-27.741 2.693-26.51 0-51.339-7.196-72.642-19.74 12.917-17.968 22.408-39.35 27.916-62.282 2.63-1.736 5.345-1.956 8.112-1.956 8.593 0 16.692 2.117 23.803 5.858 2.241 1.231 5.239 2.034 8.424 2.034 5.091 0 9.704-2.050 13.057-5.369 45.438-45.438-13.442-106.238-48.642-142.718l-18.56-19.84 4.48-3.84c11.123-7.718 18.762-19.786 20.457-33.689-0.015-12.677-5.429-23.85-14.018-31.556-14.611-14.553-31.509-26.749-50.124-36.013-6.235-64.502-52.955-99.702-129.115-99.702-36.48 0-74.88 92.8-74.88 112 0.982 13.595 5.139 26.040 11.725 36.841 3.193 5.35 5.662 12.032 6.794 19.159-9.777 15.716-21.917 28.671-36.045 39.084-1.114 2.179-1.531 4.379-1.531 6.676s0.417 4.497 1.181 6.528c-0.187 11.227-4.535 21.539-11.597 29.351-9.565 8.921-31.965 7.641-55.005 6.361h-29.44c-58.88 0-74.88 64-74.88 93.44 0 5.76 0 145.92 108.16 167.68 12.118 4.391 26.104 6.93 40.683 6.93 22.216 0 43.054-5.895 61.037-16.207 5.125-4.324 9.531-10.378 12.108-17.32 19.932-15.003 55.132-6.683 86.492-0.283l29.44 6.4c1.649 11.344 2.591 24.442 2.591 37.76s-0.942 26.416-2.762 39.231c-9.153-6.225-20.166-9.010-31.829-9.010s-22.675 2.785-32.408 7.727c-18.748 11.020-31.446 31.437-31.592 54.831-0.015 0.481-0.023 1.023-0.023 1.566 0 14.414 5.883 27.454 15.379 36.85 11.549 2.65 25.738 4.909 40.182 6.294 124.995-0.050 233.895-62.724 298.214-157.979-14.953-29.056-37.069-51.581-63.652-67.379z" />
<glyph unicode="&#xe924;" glyph-name="publish" d="M379.52 434.56c-1.266 5.224-3.719 9.756-7.064 13.467-9.576 8.933-31.976 7.653-55.016 6.373h-29.44c-58.88 0-74.88 64-74.88 93.44 0 5.76 0 145.92 108.16 167.68 12.118 4.391 26.104 6.93 40.683 6.93 22.216 0 43.054-5.895 61.037-16.207 5.125-4.324 9.531-10.378 12.108-17.32 19.932-15.003 55.132-6.683 86.492-0.283l29.44 6.4c1.649 11.344 2.591 24.442 2.591 37.76s-0.942 26.416-2.762 39.231c-9.153-6.225-20.166-9.010-31.829-9.010s-22.675 2.785-32.408 7.727c-18.748 11.020-31.446 31.437-31.592 54.831-0.015 0.481-0.023 1.023-0.023 1.566 0 14.414 5.883 27.454 15.379 36.85 11.545 2.648 25.734 4.907 40.178 6.294 124.999-0.049 233.9-62.724 298.218-157.979-14.926-27.914-36.548-49.536-62.366-64.818-2.728-1.173-4.928-1.591-7.226-1.591s-4.497 0.417-6.528 1.181c-8.251 1.697-17.88 2.693-27.741 2.693-26.51 0-51.339-7.196-72.642-19.74 12.917-17.968 22.408-39.35 27.916-62.282 2.63-1.736 5.345-1.956 8.112-1.956 8.593 0 16.692 2.117 23.803 5.858 2.241 1.231 5.239 2.034 8.424 2.034 5.091 0 9.704-2.050 13.057-5.369 45.438-45.438-13.442-106.238-48.642-142.718v0l199.040-188.8c59.958 74.355 96.244 169.984 96.244 274.088 0 30.518-3.118 60.307-9.054 89.067 0.489 7.405-5.271 17.645-7.831 27.245-4.984 19.919-10.245 36.353-16.396 52.345-3.444 8.455-9.844 19.975-15.604 30.855s-12.8 26.24-20.48 38.4-15.36 21.76-23.040 32.64-8.96 13.44-14.080 19.84v0c-59.007 68.842-137.681 119.278-227.283 142.669l-3.117 0.691h-15.36l-16 7.040c-23.224 4.268-49.948 6.709-77.242 6.709-247.424 0-448-200.576-448-448 0-103.476 35.082-198.759 94-274.603zM832 64l-320 288-320-288h128v-128h384v128h128z" />
<glyph unicode="&#xe925;" glyph-name="refresh" d="M600.96 71.68h407.040c0.221-0.011 0.48-0.018 0.741-0.018 8.483 0 15.36 6.877 15.36 15.36 0 4.589-2.013 8.709-5.204 11.523l-94.097 93.454c24.711 74.731 39.592 160.828 40.952 250.203 0.008 241.317-132.472 379.557-362.872 379.557-0.191 0.008-0.415 0.013-0.64 0.013-8.483 0-15.36-6.877-15.36-15.36 0-0.005 0-0.009 0-0.014v0.001c0.338-8.344 7.016-15.022 15.329-15.359 4.064 0.359 8.754 0.564 13.493 0.564 88.719 0 160.64-71.921 160.64-160.64 0-7.194-0.473-14.277-1.389-21.22-2.402-77.62-22.467-150.824-56.273-215.73l-106.199 110.946c-2.829 3.208-6.948 5.221-11.538 5.221-8.483 0-15.36-6.877-15.36-15.36 0-0.26 0.006-0.519 0.019-0.777l-0.001-407.004c0.338-8.344 7.016-15.022 15.329-15.359zM439.040 84.48v0c0 0.004 0 0.009 0 0.013 0 8.483-6.877 15.36-15.36 15.36-0.225 0-0.449-0.005-0.672-0.014-3.74-0.294-8.136-0.463-12.571-0.463-44.504 0-85.049 16.95-115.532 44.746-29.086 33.385-46.903 77.5-46.903 125.776 0 3.892 0.116 7.756 0.344 11.59 2.521 77.407 22.34 150.155 55.7 214.775l107.475-112.264c2.849-2.657 6.685-4.289 10.902-4.289 8.544 0 15.524 6.697 15.977 15.128l0.002 412.84c-0.353 8.557-7.376 15.36-15.987 15.36-0.004 0-0.009 0-0.013 0h-407.039c-0.207 0.010-0.45 0.016-0.693 0.016-8.483 0-15.36-6.877-15.36-15.36 0-4.259 1.733-8.113 4.533-10.895l95.361-98.561c-24.415-74.576-39.069-160.475-40.313-249.615-0.423-7.4-0.66-15.32-0.66-23.296 0-101.462 38.391-193.958 101.439-263.753 63.234-58.383 148.517-94.401 242.213-94.401 7.67 0 15.283 0.241 22.833 0.717-1.016-0.052-0.997-0.052-0.978-0.052 8.483 0 15.36 6.877 15.36 15.36 0 0.451-0.019 0.897-0.057 1.337z" />
<glyph unicode="&#xe926;" glyph-name="restricted" d="M885.12 35.2v526.72c-0.356 19.519-16.263 35.206-35.834 35.206-0.227 0-0.454-0.002-0.68-0.006h-54.366v33.28c-12.445 145.15-130.18 259.122-275.864 265.578-146.915-6.457-264.651-120.429-277.021-264.5l-0.075-33.718h-64c-0.192 0.004-0.419 0.006-0.646 0.006-19.571 0-35.478-15.687-35.834-35.172v-526.753c0.356-19.519 16.263-35.206 35.834-35.206 0.227 0 0.454 0.002 0.68 0.006h671.326c0.197-0.004 0.43-0.006 0.663-0.006 19.346 0 35.112 15.328 35.815 34.502zM571.52 309.12l-8.32-7.040v-123.52c0-25.273-20.487-45.76-45.76-45.76s-45.76 20.487-45.76 45.76v124.16c-17.061 13.168-28.126 33.386-28.797 56.212 3.652 38.379 35.637 68.072 74.557 68.072s70.905-29.693 74.537-67.662c-0.117-19.738-7.903-37.328-20.472-50.239zM720.64 597.76h-405.76v32.64c13.012 104.086 97.503 184.841 202.206 191.963 106.051-7.122 190.541-87.877 203.444-190.89z" />
<glyph unicode="&#xe927;" glyph-name="search" d="M777.6 275.84h-49.28l-17.28 16.64c60.735 70.434 97.725 162.835 97.725 263.875 0 223.742-181.378 405.12-405.12 405.12s-405.12-181.378-405.12-405.12c0-223.742 181.378-405.12 405.12-405.12 101.040 0 193.441 36.99 264.4 98.167l16.115-17.722v-49.28l247.040-246.4 92.8 92.8zM404.48 275.84c-154.463 0-279.68 125.217-279.68 279.68s125.217 279.68 279.68 279.68c154.463 0 279.68-125.217 279.68-279.68s-125.217-279.68-279.68-279.68z" />
<glyph unicode="&#xe928;" glyph-name="select-all" d="M960 640h-256v256c0 35.346-28.654 64-64 64h-576c-35.346 0-64-28.654-64-64v-576c0-35.346 28.654-64 64-64h256v-256c0-35.346 28.654-64 64-64h576c35.346 0 64 28.654 64 64v576c0 35.346-28.654 64-64 64zM320 576v-256h-256v576h576v-256h-256c-35.346 0-64-28.654-64-64zM623.36 142.72l-196.48 196.48 78.72 79.36 118.4-118.4 236.16 236.16 78.72-78.72z" />
<glyph unicode="&#xe929;" glyph-name="settings" d="M849.92 76.8c4.418-2.693 9.761-4.287 15.477-4.287 11.127 0 20.842 6.041 26.046 15.023l119.757 208.784c2.519 4.305 4.006 9.478 4.006 14.999 0 11.013-5.918 20.643-14.748 25.884l-76.939 46.796c3.128 19.147 4.985 41.302 5.119 63.865-0.103 22.808-1.961 44.965-5.444 66.578l76.485 41.717c8.968 5.318 14.886 14.948 14.886 25.961 0 5.521-1.487 10.695-4.083 15.142l-120.243 211.057c-4.098 6.861-10.613 11.918-18.345 14.030-2.554 0.718-5.239 1.102-8.015 1.102-5.632 0-10.895-1.582-15.369-4.325l-74.112-43.447c-31.836 27.179-69.272 48.94-110.203 63.258l-2.437 90.982c0 16.613-13.467 30.080-30.080 30.080h-240.64c-16.613 0-30.080-13.467-30.080-30.080v-87.68c-45.066-16.096-83.952-38.905-117.638-67.631l-77.562 44.591c-3.689 1.739-8.013 2.754-12.574 2.754-10.495 0-19.734-5.375-25.116-13.522l-124.23-208.752c-2.519-4.305-4.006-9.478-4.006-14.999 0-11.013 5.918-20.643 14.748-25.884l76.299-46.796c-3.179-19.184-5.038-41.343-5.12-63.919 0.109-22.759 1.967-44.915 5.445-66.529l-76.485-44.271c-8.968-5.318-14.886-14.948-14.886-25.961 0-5.521 1.487-10.695 4.083-15.142l120.243-208.497c5.318-8.968 14.948-14.886 25.961-14.886 5.521 0 10.695 1.487 15.142 4.083l78.577 44.083c33.168-28.295 72.054-51.104 114.532-66.387l2.588-87.853c0-16.613 13.467-30.080 30.080-30.080h240.64c16.613 0 30.080 13.467 30.080 30.080v87.040c43.348 15.154 80.77 36.902 113.141 64.415zM506.88 237.44c-116.014 0.364-209.92 94.495-209.92 210.559 0 116.289 94.271 210.56 210.56 210.56s210.56-94.271 210.56-210.559c-0.364-116.367-94.781-210.56-211.199-210.56 0 0-0.001 0-0.001 0z" />
<glyph unicode="&#xe92a;" glyph-name="sites" d="M512 874.667c-235.641 0-426.667-191.025-426.667-426.667s191.025-426.667 426.667-426.667c235.641 0 426.667 191.025 426.667 426.667s-191.025 426.667-426.667 426.667zM807.68 618.667h-125.013c-14.806 57.748-34.962 108.288-60.626 155.394 80.344-31.414 144.062-84.907 184.34-153.779zM512 789.333c34.171-48.97 61.956-105.654 80.383-166.409l-161.876-4.258c19.537 65.012 47.323 121.696 82.789 172.633zM181.76 362.667c-7.047 25.599-11.097 54.993-11.097 85.333s4.050 59.734 11.638 87.671l143.672-2.338c-3.526-25.382-5.688-54.96-5.971-84.988 0.283-30.719 2.445-60.297 6.374-89.315zM216.747 277.333h124.587c14.806-57.748 34.962-108.288 60.626-155.394-80.344 31.414-144.062 84.907-184.34 153.779zM341.333 618.667h-128c42.232 71.252 107.687 124.949 185.752 151.191-21.936-42.906-42.506-93.413-56.692-146.527zM512 106.667c-34.171 48.97-61.956 105.654-80.383 166.409l161.876 4.258c-19.537-65.012-47.323-121.696-82.789-172.633zM611.84 362.667h-199.68c-3.994 25.378-6.463 54.907-6.823 84.944 0.341 30.797 2.811 60.327 7.265 89.203l199.238-3.48c4.012-25.396 6.482-54.926 6.823-84.967-0.361-30.792-2.83-60.322-7.266-89.202zM622.507 125.44c24.343 43.608 44.914 94.115 59.1 147.229l129.060 4.665c-42.232-71.252-107.687-124.949-185.752-151.191zM853.333 448c-0.207-30.408-4.241-59.781-11.644-87.785l-143.662 2.452c3.526 25.382 5.688 54.96 5.971 84.988-0.283 30.719-2.445 60.297-6.374 89.315l144.616-3.636c6.852-25.552 10.887-54.926 11.093-85.208z" />
<glyph unicode="&#xe92b;" glyph-name="size" horiz-adv-x="2048" d="M640 640l-320-192 320-192v384zM1408 640v-384l320 192-320 192zM1856 960h-1664v-1024h1664zM1792 0h-1536v896h1536z" />
<glyph unicode="&#xe92c;" glyph-name="sort" d="M128 832h128v-704h-128v704zM384 640h640v-128h-640v128zM512 896h512v-128h-512v128zM384 384h640v-128h-640v128zM512 128h512v-128h-512v128zM384 192h-384l192-230.4 192 230.4zM0 729.6h384l-192 230.4-192-230.4z" />
<glyph unicode="&#xe92d;" glyph-name="tag" d="M64 320l320-320 576 576v320h-320zM640 670.080c0 51.959 42.121 94.080 94.080 94.080s94.080-42.121 94.080-94.080c0-51.959-42.121-94.080-94.080-94.080s-94.080 42.121-94.080 94.080z" />
<glyph unicode="&#xe92e;" glyph-name="tags" d="M563.2 867.84c4.141 4.18 9.869 6.782 16.205 6.827h267.102v-46.080h-256l-474.027-472.747 21.76-21.76-32.427-32.427-37.973 37.973c-4.123 4.161-6.67 9.89-6.67 16.213s2.547 12.052 6.672 16.215zM137.813 245.76l267.093-267.093 533.76 533.76v267.093h-267.093zM707.84 618.667c0 38.174 30.946 69.12 69.12 69.12s69.12-30.946 69.12-69.12c0-38.174-30.946-69.12-69.12-69.12s-69.12 30.946-69.12 69.12z" />
<glyph unicode="&#xe92f;" glyph-name="toggle-sidebar" d="M256 832h768v-128h-768v128zM512 512h512v-128h-512v128zM256 192h768v-128h-768v128zM0 768v-640l384 320-384 320z" />
<glyph unicode="&#xe930;" glyph-name="trash-full" d="M128 47.36c-0.011-0.58-0.017-1.264-0.017-1.95 0-59.548 47.559-107.988 106.765-109.408l491.012-0.003c59.057 1.772 106.258 50.071 106.258 109.394 0 0.691-0.006 1.381-0.019 2.070l0.002 592.537h-704zM576 512h64v-384h-64zM448 512h64v-384h-64zM320 512h64v-384h-64zM896 768l-64 64h-64l-128-128h128l128 64zM320 896l-192 64 128-192-128 64-64-64 128-64h192v64l-64 128zM640 960l-64-64h-64l-64-128v-64h128l192 192-128 64z" />
<glyph unicode="&#xe931;" glyph-name="trash" d="M584.96 896h-209.92l-55.040-64-256-12.8v-115.2h832v115.2l-256 12.8-55.040 64zM128 47.36c-0.011-0.58-0.017-1.264-0.017-1.95 0-59.548 47.559-107.988 106.765-109.408l491.012-0.003c59.057 1.772 106.258 50.071 106.258 109.394 0 0.691-0.006 1.381-0.019 2.070l0.002 592.537h-704zM576 512h64v-384h-64zM448 512h64v-384h-64zM320 512h64v-384h-64z" />
<glyph unicode="&#xe932;" glyph-name="unlink" d="M267.378 203.378c-24.070 24.001-38.962 57.195-38.962 93.867s14.892 69.866 38.959 93.863l121.177 120.039-56.889 56.889-121.173-120.036c-35.475-37.994-57.256-89.17-57.256-145.434 0-117.821 95.513-213.333 213.333-213.333 56.264 0 107.441 21.781 145.558 57.371l120.48 120.49-56.889 56.889-120.604-120.604c-24.001-24.070-57.195-38.962-93.867-38.962s-69.866 14.892-93.863 38.959zM739.556 779.662l-163.84-47.218 21.049-77.938 164.409 44.942c16.732 8.191 36.411 12.981 57.208 12.981 73.206 0 132.551-59.345 132.551-132.551 0-68.51-51.976-124.88-118.646-131.83l-164.98-44.99 21.049-77.938 164.978 42.667c91.116 25.77 156.762 108.188 156.762 205.938 0 117.996-95.655 213.651-213.651 213.651-20.246 0-39.834-2.816-58.395-8.078zM455.111 903.111h56.889v-227.556h-56.889v227.556zM221.778 783.427l40.227 40.227 170.56-170.56-40.227-40.227-170.56 170.56z" />
<glyph unicode="&#xe933;" glyph-name="unlocked" d="M896 36.48v539.52c-0.357 20.226-16.837 36.486-37.115 36.486-0.227 0-0.453-0.002-0.679-0.006h-549.086v35.84c12.154 108.226 99.445 192.657 207.928 200.28 62.885-3.525 117.669-32.452 155.343-76.461l54.010 51.541c-51.794 57.72-125.601 94.785-208.098 97.904-150.95-6.779-271.94-124.007-284.625-272.157l-0.076-35.027h-67.84c-0.197 0.004-0.429 0.006-0.662 0.006-20.501 0-37.12-16.619-37.12-37.12 0-0.452 0.008-0.903 0.024-1.351l-0.002-542.015c0.357-20.226 16.837-36.486 37.115-36.486 0.227 0 0.453 0.002 0.679 0.006h692.446c0.205-0.004 0.447-0.006 0.69-0.006 20.501 0 37.12 16.619 37.12 37.12 0 0.678-0.018 1.351-0.054 2.020zM576 305.28l-8.32-7.040v-128c0-25.979-21.061-47.040-47.040-47.040s-47.040 21.061-47.040 47.040v128c-17.662 13.383-29.193 34.059-30.076 57.462-0.004 42.554 34.38 76.938 76.796 76.938s76.8-34.385 76.8-76.8c-0.429-19.703-8.404-37.464-21.138-50.578z" />
<glyph unicode="&#xe934;" glyph-name="upload" d="M618.88 362.88l53.12 277.12h160l-320 320-320-320h160l53.12-277.12h213.76zM768 512h-72.96l200.96-256h-192l-64-128h-256l-64 128h-192l200.96 256h-72.96l-210.56-210.56c-20.116-22.511-32.41-52.383-32.41-85.127 0-8.601 0.848-17.003 2.466-25.128l33.145-191.185c9.816-35.875 41.281-62.13 79.159-63.992l768.201-0.008c38.079 1.87 69.544 28.125 79.218 63.394l33.422 192.606c1.364 7.015 2.144 15.081 2.144 23.33 0 32.304-11.967 61.814-31.71 84.337z" />
<glyph unicode="&#xe935;" glyph-name="user-new" d="M200.32 647.68v120.32h-80v-120.32h-120.32v-80h120.32v-119.68h80v119.68h119.68v80h-119.68zM576 496c0.952-0.016 2.074-0.026 3.199-0.026 110.634 0 200.32 89.686 200.32 200.32s-89.686 200.32-200.32 200.32c-110.634 0-200.32-89.686-200.32-200.32 0-0.216 0-0.432 0.001-0.648 0 0.029 0 0.023 0 0.017 0-109.38 87.946-198.219 196.984-199.662zM576 400c-146.56 0-439.68-73.6-439.68-220.16v-179.84h882.56v179.84c0 146.56-293.76 220.16-442.88 220.16z" />
<glyph unicode="&#xe936;" glyph-name="user" d="M512 496c0.952-0.016 2.074-0.026 3.199-0.026 110.634 0 200.32 89.686 200.32 200.32s-89.686 200.32-200.32 200.32c-110.634 0-200.32-89.686-200.32-200.32 0-0.216 0-0.432 0.001-0.648 0 0.029 0 0.023 0 0.017 0-109.38 87.946-198.219 196.984-199.662zM512 400c-146.56 0-439.68-73.6-439.68-220.16v-179.84h882.56v179.84c0 146.56-293.76 220.16-442.88 220.16z" />
<glyph unicode="&#xe937;" glyph-name="users" d="M810.24 597.333c0-58.91-47.565-106.667-106.24-106.667s-106.24 47.756-106.24 106.667c0 58.91 47.565 106.667 106.24 106.667s106.24-47.756 106.24-106.667zM704 405.333c-78.080 0-234.667-39.253-234.667-117.333v-96h469.333v96c0 78.080-156.587 117.333-234.667 117.333zM511.573 661.333c0-70.692-57.117-128-127.573-128s-127.573 57.308-127.573 128c0 70.692 57.117 128 127.573 128s127.573-57.308 127.573-128zM384 448c-99.413 0-298.667-49.92-298.667-149.333v-106.667h298.667v96c2.51 66.187 42.918 122.355 100.046 147.629-29.012 7.302-63.813 11.615-99.491 12.362z" />
<glyph unicode="&#xe938;" glyph-name="visible" d="M512 752c-278.4 0-497.92-278.4-507.52-290.56-2.797-3.697-4.48-8.372-4.48-13.44s1.683-9.743 4.521-13.496c9.559-12.104 229.079-290.504 507.479-290.504s497.92 278.4 507.52 290.56c2.797 3.697 4.48 8.372 4.48 13.44s-1.683 9.743-4.521 13.496c-9.559 12.104-229.079 290.504-507.479 290.504zM512 252.8c-0.008 0-0.017 0-0.027 0-106.039 0-192 85.961-192 192 0 1.125 0.010 2.248 0.029 3.368 0.020 53.124 21.256 101.453 55.719 136.834-8.145-18.095-12.865-39.171-12.865-61.35 0-0.947 0.009-1.892 0.026-2.834-0.002-82.392 66.905-149.298 149.438-149.298s149.44 66.907 149.44 149.44c0.015 0.801 0.024 1.746 0.024 2.693 0 22.179-4.72 43.255-13.211 62.279 34.445-36.255 55.428-84.353 55.428-137.351 0-0.204 0-0.408-0.001-0.612 0.017-0.92 0.027-2.043 0.027-3.168 0-106.039-85.961-192-192-192-0.009 0-0.019 0-0.028 0z" />
<glyph unicode="&#xe939;" glyph-name="visit-page" horiz-adv-x="2048" d="M704 832v-832c0-35.346 28.654-64 64-64h1152c35.346 0 64 28.654 64 64v832c0 35.346-28.654 64-64 64h-1152c-35.346 0-64-28.654-64-64zM1216 832c35.346 0 64-28.654 64-64s-28.654-64-64-64c-35.346 0-64 28.654-64 64s28.654 64 64 64zM1024 832c35.346 0 64-28.654 64-64s-28.654-64-64-64c-35.346 0-64 28.654-64 64s28.654 64 64 64zM832 832c35.346 0 64-28.654 64-64s-28.654-64-64-64c-35.346 0-64 28.654-64 64s28.654 64 64 64zM768 640h1152v-640h-1152zM345.6 320v-121.6c0.101-6.991 5.793-12.62 12.799-12.62 3.49 0 6.654 1.397 8.963 3.662l232.318 230.398c2.263 2.307 3.659 5.47 3.659 8.96s-1.396 6.653-3.661 8.962l-231.038 230.398c-2.31 2.277-5.483 3.683-8.985 3.683-6.789 0-12.343-5.285-12.773-11.966l-0.002-109.478c-78.184-34.235-145.533-74.067-207.314-120.865-58.227-52.663-97.669-129.832-102.41-216.244 3.536-81.721 40.042-153.457 96.31-203.433 2.602-2.519 5.765-3.916 9.255-3.916s6.653 1.396 8.962 3.661l-0.002-0.002c2.263 2.307 3.659 5.47 3.659 8.96s-1.396 6.653-3.661 8.962c-27.135 23.876-44.742 58.024-46.704 96.306 2.626 42.049 21.825 78.824 51.019 104.507 54.29 39.522 117.344 70.832 185.313 90.595zM1344 563.2c-199.040 0-356.48-199.68-362.88-208-1.998-2.641-3.2-5.98-3.2-9.6s1.202-6.959 3.229-9.64c4.451-8.28 161.891-207.96 362.851-207.96s356.48 199.68 362.88 208c1.998 2.641 3.2 5.98 3.2 9.6s-1.202 6.959-3.229 9.64c-7.651 8.28-165.731 207.96-362.851 207.96zM1344 205.44c-0.002 0-0.004 0-0.006 0-76.701 0-138.88 62.179-138.88 138.88 0 0.45 0.002 0.9 0.006 1.349 0.015 38.010 15.145 72.552 39.714 97.887-5.698-12.818-8.995-27.727-8.995-43.405 0-0.053 0-0.106 0-0.159 0-59.020 47.852-106.872 106.88-106.872s106.88 47.852 106.88 106.88c0 0.045 0 0.098 0 0.151 0 15.679-3.297 30.588-9.236 44.071 24.81-26 39.94-60.543 39.956-98.618 0.004-0.39 0.006-0.848 0.006-1.306 0-75.803-60.731-137.422-136.192-138.855z" />
<glyph unicode="&#xe93a;" glyph-name="warning" d="M543.36 878.080c-6.787 10.709-18.575 17.715-32 17.715s-25.213-7.006-31.909-17.56l-458.971-827.034c-2.857-4.865-4.544-10.716-4.544-16.96s1.687-12.095 4.631-17.12c6.305-10.268 17.639-17.12 30.573-17.12 0.021 0 0.042 0 0.063 0h921.597c0.135-0.002 0.295-0.003 0.455-0.003 12.671 0 23.806 6.575 30.179 16.5 2.943 5.008 4.63 10.858 4.63 17.103s-1.687 12.095-4.631 17.12zM576 576l-28.8-265.6h-70.4l-28.8 265.6zM512 103.68c-37.339 1.070-67.2 31.595-67.2 69.093 0 38.174 30.946 69.12 69.12 69.12 38.165 0 69.105-30.931 69.12-69.092-0.356-38.258-31.451-69.133-69.757-69.133-0.451 0-0.901 0.004-1.35 0.013z" />
<glyph unicode="&#xe93b;" glyph-name="zoom-equal" d="M777.6 275.84h-49.28l-17.28 16.64c60.735 70.434 97.725 162.835 97.725 263.875 0 223.742-181.378 405.12-405.12 405.12s-405.12-181.378-405.12-405.12c0-223.742 181.378-405.12 405.12-405.12 101.040 0 193.441 36.99 264.4 98.167l16.115-17.722v-49.28l247.040-246.4 92.8 92.8zM404.48 275.84c-154.463 0-279.68 125.217-279.68 279.68s125.217 279.68 279.68 279.68c154.463 0 279.68-125.217 279.68-279.68s-125.217-279.68-279.68-279.68zM256 640h320v-64h-320v64zM256 512h320v-64h-320v64z" />
<glyph unicode="&#xe93c;" glyph-name="zoom-in" d="M448 704h-64v-128h-128v-64h128v-128h64v128h128v64h-128v128zM777.6 275.84h-49.28l-17.28 16.64c60.735 70.434 97.725 162.835 97.725 263.875 0 223.742-181.378 405.12-405.12 405.12s-405.12-181.378-405.12-405.12c0-223.742 181.378-405.12 405.12-405.12 101.040 0 193.441 36.99 264.4 98.167l16.115-17.722v-49.28l247.040-246.4 92.8 92.8zM404.48 275.84c-154.463 0-279.68 125.217-279.68 279.68s125.217 279.68 279.68 279.68c154.463 0 279.68-125.217 279.68-279.68s-125.217-279.68-279.68-279.68z" />
<glyph unicode="&#xe93d;" glyph-name="zoom-out" d="M256 576h320v-64h-320zM777.6 275.84h-49.28l-17.28 16.64c60.735 70.434 97.725 162.835 97.725 263.875 0 223.742-181.378 405.12-405.12 405.12s-405.12-181.378-405.12-405.12c0-223.742 181.378-405.12 405.12-405.12 101.040 0 193.441 36.99 264.4 98.167l16.115-17.722v-49.28l247.040-246.4 92.8 92.8zM404.48 275.84c-154.463 0-279.68 125.217-279.68 279.68s125.217 279.68 279.68 279.68c154.463 0 279.68-125.217 279.68-279.68s-125.217-279.68-279.68-279.68z" />
<glyph unicode="&#xe93e;" glyph-name="audio" d="M941.44 717.44l-224 224c-11.563 11.472-27.489 18.561-45.070 18.561-0.13 0-0.26 0-0.39-0.001h-543.98c-35.346 0-64-28.654-64-64v-896c0-35.346 28.654-64 64-64h768c35.346 0 64 28.654 64 64v672c0.001 0.11 0.001 0.24 0.001 0.37 0 17.581-7.089 33.507-18.565 45.074zM696.96 583.68h-120.96v-303.36c0.010-0.558 0.015-1.216 0.015-1.876 0-32.764-13.754-62.315-35.803-83.195-21.53-21.792-51.343-35.259-84.302-35.259-0.531 0-1.062 0.003-1.591 0.010-66.225 0.36-119.879 54.014-120.24 120.285-0.006 0.484-0.010 1.014-0.010 1.545 0 32.958 13.467 62.772 35.198 84.237 20.985 22.488 50.781 36.499 83.849 36.499 0.451 0 0.902-0.003 1.351-0.008 23.51-0.043 45.583-6.454 64.531-17.606l-0.6 319.046h181.12z" />
<glyph unicode="&#xe93f;" glyph-name="video" d="M941.44 717.44l-224 224c-11.563 11.472-27.489 18.561-45.070 18.561-0.13 0-0.26 0-0.39-0.001h-543.98c-35.346 0-64-28.654-64-64v-896c0-35.346 28.654-64 64-64h768c35.346 0 64 28.654 64 64v672c0.001 0.11 0.001 0.24 0.001 0.37 0 17.581-7.089 33.507-18.565 45.074zM563.84 304c-0.704-37.18-30.66-67.136-67.773-67.839l-204.227-0.001c-37.18 0.704-67.136 30.66-67.839 67.773l-0.001 204.227c0.704 37.18 30.66 67.136 67.773 67.839l204.227 0.001c37.18-0.704 67.136-30.66 67.839-67.773zM768 256c0.014-0.249 0.022-0.541 0.022-0.834 0-7.012-4.511-12.971-10.789-15.132l-6.513-0.034c-0.233-0.012-0.507-0.018-0.782-0.018-4.405 0-8.411 1.712-11.387 4.507l-140.791 139.512v46.080l140.8 141.44c2.968 2.787 6.973 4.498 11.378 4.498 0.275 0 0.548-0.007 0.82-0.020l6.362 0.001c6.391-2.195 10.902-8.154 10.902-15.166 0-0.293-0.008-0.585-0.023-0.874z" />
<glyph unicode="&#xe940;" glyph-name="psd" d="M324.48 563.2h-44.16v-145.28h35.84c2.909-0.134 6.32-0.21 9.749-0.21 19.263 0 37.962 2.411 55.814 6.947 11.497 2.87 22.071 11.556 27.762 23.085 5.060 12.475 7.93 26.643 7.93 41.481 0 1.934-0.049 3.856-0.145 5.765 0.22 1.677 0.34 3.932 0.34 6.216 0 18.371-7.74 34.933-20.137 46.605-17.215 10.135-37.881 16.104-59.941 16.104-4.598 0-9.135-0.259-13.598-0.764zM941.44 717.44l-224 224c-11.563 11.472-27.489 18.561-45.070 18.561-0.13 0-0.26 0-0.39-0.001h-543.98c-35.346 0-64-28.654-64-64v-896c0-35.346 28.654-64 64-64h768c35.346 0 64 28.654 64 64v672c0.001 0.11 0.001 0.24 0.001 0.37 0 17.581-7.089 33.507-18.565 45.074zM471.040 378.88c-27.873-23.895-64.374-38.44-104.271-38.44-5.2 0-10.342 0.247-15.416 0.73l-71.033-0.050v-133.76h-88.32v432.64h162.56c3.302 0.229 7.157 0.36 11.042 0.36 38.583 0 74.156-12.884 102.654-34.583 24.841-24.752 40.477-59.474 40.477-97.848 0-4.425-0.208-8.802-0.614-13.12 0.372-3.318 0.561-7.823 0.561-12.371 0-39.537-14.226-75.75-37.839-103.802zM811.52 245.12c-11.778-15.788-27.632-27.932-46.014-34.963-20.159-7.956-42.696-12.432-66.28-12.432-1.247 0-2.491 0.013-3.732 0.037-5.123-0.648-11.269-1.016-17.501-1.016-49.3 0-93.22 23.034-121.585 58.928l59.912 42.566c8.293-12.090 19.861-21.39 33.429-26.71 12.241-4.233 25.781-6.58 39.87-6.58 0.556 0 1.111 0.004 1.666 0.011q57.516-0.001 57.516 33.279c-0.381 10.204-6.831 18.81-15.83 22.341-14.72 6.679-31.821 12.406-49.588 16.365-37.168 5.715-68.497 20.049-94.302 40.936-15.983 16.242-26.079 38.974-26.079 64.064 0 2.13 0.073 4.243 0.216 6.336-0.029 0.305-0.037 0.998-0.037 1.693 0 28.082 12.918 53.146 33.137 69.574 24.367 17.954 54.769 28.656 87.671 28.656 3.665 0 7.298-0.133 10.896-0.394 0.619 0.050 1.918 0.062 3.219 0.062 26.555 0 51.899-5.184 75.076-14.594 20.285-8.186 37.997-22.805 50.248-41.349l-59.905-43.931c-14.152 20.383-37.442 33.561-63.809 33.561-2.32 0-4.617-0.102-6.885-0.302-1.126 0.126-2.781 0.185-4.45 0.185-12.113 0-23.491-3.145-33.363-8.663-8.794-3.864-15.056-12.852-15.056-23.303 0-0.52 0.016-1.037 0.046-1.549-0.004 0.023-0.004-0.033-0.004-0.090 0-8.588 4.572-16.109 11.415-20.26 13.224-7.11 28.434-12.649 44.48-15.88 32.19-6.329 59.824-15.85 85.591-28.577 13.094-7.265 25.404-18.755 34.28-32.651 7.916-13.611 12.451-29.484 12.451-46.416 0-1.145-0.021-2.285-0.062-3.42 0.021-0.496 0.031-1.274 0.031-2.054 0-19.992-6.236-38.527-16.868-53.768z" />
<glyph unicode="&#xe941;" glyph-name="archive" d="M586.24 311.040c-19.099 9.32-41.556 14.769-65.284 14.769-1.349 0-2.693-0.018-4.034-0.053-0.903 0.033-2.2 0.049-3.5 0.049-23.775 0-46.278-5.447-66.329-15.161-18.293-9.203-27.893-20.723-27.893-34.163s9.6-24.96 28.8-34.56c19.099-9.32 41.556-14.769 65.284-14.769 1.349 0 2.693 0.018 4.034 0.053 0.985-0.037 2.378-0.056 3.775-0.056 23.683 0 46.092 5.451 66.043 15.166q27.904 14.326 27.904 34.166t-28.8 34.56zM941.44 717.44l-224 224c-11.563 11.472-27.489 18.561-45.070 18.561-0.13 0-0.26 0-0.39-0.001h-95.98v-64h-64v64h-384c-35.346 0-64-28.654-64-64v-896c0-35.346 28.654-64 64-64h768c35.346 0 64 28.654 64 64v672c0.001 0.11 0.001 0.24 0.001 0.37 0 17.581-7.089 33.507-18.565 45.074zM608 205.44c-24.103-17.007-54.085-27.183-86.443-27.183-3.362 0-6.699 0.11-10.007 0.326-1.438-0.108-3.652-0.156-5.877-0.156-32.646 0-62.873 10.357-87.575 27.965-20.61 15.235-34.127 39.97-34.127 67.862 0 0.782 0.011 1.562 0.032 2.34 0.016 9.247 1.418 18.274 4.010 26.783l54.228 177.263c1.95 7.057 6.010 12.983 11.447 17.226 5.356 4.054 12.037 6.461 19.281 6.461 0.222 0 0.444-0.002 0.665-0.007l38.367 0.001v71.68h-64v64h64v64h-64v64h64v64h-64v64h64v-64h64v-64h-64v-64h64v-64h-64v-64h64v-71.040c33.92-113.28 57.6-180.48 64-201.6 2.419-7.851 3.821-16.878 3.84-26.23 0.007-0.402 0.010-0.866 0.010-1.33 0-28.438-14.051-53.594-35.59-68.904z" />
<glyph unicode="&#xe942;" glyph-name="rtf" d="M941.44 717.44l-224 224c-11.563 11.472-27.489 18.561-45.070 18.561-0.13 0-0.26 0-0.39-0.001h-543.98c-35.346 0-64-28.654-64-64v-896c0-35.346 28.654-64 64-64h768c35.346 0 64 28.654 64 64v672c0.001 0.11 0.001 0.24 0.001 0.37 0 17.581-7.089 33.507-18.565 45.074zM256 640h192v-256h-192zM768 192h-512v64h512zM768 384h-192v64h192zM768 576h-192v64h192z" />
<glyph unicode="&#xe943;" glyph-name="text" d="M941.44 717.44l-224 224c-11.563 11.472-27.489 18.561-45.070 18.561-0.13 0-0.26 0-0.39-0.001h-543.98c-35.346 0-64-28.654-64-64v-896c0-35.346 28.654-64 64-64h768c35.346 0 64 28.654 64 64v672c0.001 0.11 0.001 0.24 0.001 0.37 0 17.581-7.089 33.507-18.565 45.074zM768 192h-512v64h512zM768 384h-512v64h512zM768 576h-512v64h512z" />
<glyph unicode="&#xe944;" glyph-name="word" d="M941.44 717.44l-224 224c-11.563 11.472-27.489 18.561-45.070 18.561-0.13 0-0.26 0-0.39-0.001h-543.98c-35.346 0-64-28.654-64-64v-896c0-35.346 28.654-64 64-64h768c35.346 0 64 28.654 64 64v672c0.001 0.11 0.001 0.24 0.001 0.37 0 17.581-7.089 33.507-18.565 45.074zM824.32 576h-40.96l-95.36-384h-93.44l-74.24 282.88c-1.36 4.359-2.482 9.56-3.153 14.901 0.047 2.18 0.101 4.193 0.101 6.219s-0.054 4.040-0.16 6.039l0.012 13.801h-5.12c-0.585-14.817-3.117-28.828-7.349-42.079l-75.211-281.761h-92.8l-96 384h-40.96v64h175.36v-64h-55.040l57.6-256c1.9-7.828 3.269-17.028 3.82-26.448l0.020-12.592v24.96c0 5.76 0 10.88 0 14.080l97.28 320h64l83.84-320v-26.88c-0.057-0.576-0.090-1.244-0.090-1.92s0.033-1.344 0.097-2.004l-0.007-4.396c0.044-0.575 0.069-1.244 0.069-1.92s-0.025-1.345-0.074-2.009l0.005 0.089v12.16c0.571 9.852 1.94 19.052 4.057 27.963l73.383 254.917h-52.48v64h174.72z" />
<glyph unicode="&#xe945;" glyph-name="excel" d="M941.44 717.44l-224 224c-11.563 11.472-27.489 18.561-45.070 18.561-0.13 0-0.26 0-0.39-0.001h-543.98c-35.346 0-64-28.654-64-64v-896c0-35.346 28.654-64 64-64h768c35.346 0 64 28.654 64 64v672c0.001 0.11 0.001 0.24 0.001 0.37 0 17.581-7.089 33.507-18.565 45.074zM707.84 576h-38.4l-112.64-163.2 110.72-156.8h36.48v-64h-165.12v64h43.52l-64 94.080-3.84 5.12-2.56 1.92v4.48c-0.134 0.865-0.21 1.864-0.21 2.88s0.076 2.015 0.224 2.99l-0.014-0.11-4.48-7.68-5.76-9.6-66.56-94.080h43.52v-64h-162.56v64h39.040l112 163.2-108.8 156.8h-38.4v64h166.4v-64h-43.52l64-92.8c1.875-3.265 3.605-7.071 4.977-11.043 0.273-1.342 0.347-2.341 0.347-3.357s-0.074-2.015-0.217-2.991l0.013 0.111 5.12 7.68 5.76 9.6 66.56 92.8h-42.88v64h161.28z" />
<glyph unicode="&#xe946;" glyph-name="image" d="M941.44 717.44l-224 224c-11.563 11.472-27.489 18.561-45.070 18.561-0.13 0-0.26 0-0.39-0.001h-543.98c-35.346 0-64-28.654-64-64v-896c0-35.346 28.654-64 64-64h768c35.346 0 64 28.654 64 64v672c0.001 0.11 0.001 0.24 0.001 0.37 0 17.581-7.089 33.507-18.565 45.074zM279.040 672c19.21 19.756 46.043 32.014 75.739 32.014 0.598 0 1.195-0.005 1.791-0.015 0.1 0.002 0.325 0.003 0.55 0.003 60.442 0 109.44-48.998 109.44-109.44 0-0.001 0-0.001 0-0.002 0.001-0.191 0.002-0.416 0.002-0.642 0-60.442-48.998-109.44-109.44-109.44-0.226 0-0.451 0.001-0.676 0.002 0.034 0 0.033 0 0.033 0-60.442 0-109.44 48.998-109.44 109.44 0 0.225 0.001 0.45 0.002 0.674-0.009 0.471-0.014 1.068-0.014 1.666 0 29.696 12.258 56.529 31.989 75.715zM832 192h-584.96v109.44l109.44 110.080 72.96-72.96 219.52 219.52 183.040-183.040z" />
<glyph unicode="&#xe947;" glyph-name="pdf" d="M456.96 384l-8.96-23.040c34.28 12.592 77.137 24.939 121.016 34.556-20.516 27.294-43.929 57.233-62.449 90.285-18.174-40.374-34.489-74.474-52.463-107.542zM941.44 717.44l-224 224c-11.563 11.472-27.489 18.561-45.070 18.561-0.13 0-0.26 0-0.39-0.001h-543.98c-35.346 0-64-28.654-64-64v-896c0-35.346 28.654-64 64-64h768c35.346 0 64 28.654 64 64v672c0.001 0.11 0.001 0.24 0.001 0.37 0 17.581-7.089 33.507-18.565 45.074zM907.52 328.96v-3.84l-3.84-3.84c-5.12-18.56-21.12-35.2-64-35.2-30.922 0.878-60.295 6.197-87.926 15.341-32.723 10-62.618 22.388-91.007 37.258-94.428-11.431-183.415-30.837-268.408-59.007-65.94-125.433-124.18-184.953-172.18-184.953-0.557-0.020-1.212-0.031-1.869-0.031-9.608 0-18.661 2.379-26.601 6.58l-24.65 14.571c-6.429 7.538-10.341 17.394-10.341 28.163 0 3.865 0.504 7.613 1.45 11.181 8.354 28.445 23.428 53.039 43.423 72.629 27.589 28.626 59.716 52.581 95.283 70.767 5.982 3.571 10.844 5.137 16.071 5.137 2.52 0 4.955-0.364 7.256-1.043l-0.181 0.046c21.12 35.84 42.88 76.16 64 121.6 26.722 49.785 51.463 108.255 70.882 169.1-7.757 39.759-15.22 77.611-18.866 116.572-1.304 11.982-1.947 23.167-1.947 34.502 0 22.391 2.511 44.197 7.266 65.149 9.225 33.236 32.265 38.356 45.065 38.356h14.72c0.831 0.053 1.802 0.084 2.78 0.084 13.965 0 26.479-6.212 34.929-16.024 8.449-11.441 13.493-25.746 13.493-41.228 0-8.178-1.407-16.028-3.993-23.32l0.151-4.632s0 0 0 0v-21.12c-0.146-47.312-3.63-93.679-10.23-139.037 17.633-58.117 50.689-112.327 95.202-154.584 15.288-11.82 32.42-23.444 50.243-34.028 26.426 2.153 54.768 4.459 83.527 5.075 76.299 0.013 121.099-13.427 139.019-41.587 4.505-7.236 7.176-16.020 7.176-25.428 0-8.508-2.184-16.506-6.023-23.463z" />
<glyph unicode="&#xe948;" glyph-name="no-menu" d="M611.2 768h-483.2v-128h355.2l128 128zM856.32 640h39.68v39.68l-39.68-39.68zM36.486 57.081l863.915 863.915 50.685-50.685-863.915-863.915-50.685 50.685zM600.32 384h295.68v128h-167.68l-128-128zM355.2 512h-227.2v-128h99.2l128 128zM344.32 128h551.68v128h-423.68l-128-128z" />
<glyph unicode="&#xe949;" glyph-name="menu" d="M128 768h768v-128h-768v128zM128 512h768v-128h-768v128zM128 256h768v-128h-768v128z" />
<glyph unicode="&#xe94a;" glyph-name="clipboard-full" d="M739.84 704c0.193-0.005 0.42-0.008 0.647-0.008 14.977 0 27.159 11.963 27.512 26.855l0.001 96.033c-0.354 14.924-12.536 26.888-27.513 26.888-0.228 0-0.455-0.003-0.681-0.008l-88.286 0.001c-1.826 7.705-4.021 14.323-6.716 20.679l-4.804 6.841-5.12 14.72-5.12 4.48-7.68 10.24-6.4 6.4-9.6 8.96-7.68 5.76-10.24 7.040-12.16 5.12-8.32 5.12-9.6 3.2-13.44 3.84-8.96 3.84c-7.119 1.259-15.316 1.978-23.68 1.978s-16.561-0.72-24.531-2.1l-8.109 0.122-13.44-7.68-9.6-3.2-8.32-5.12-12.16-5.12-10.24-7.040-7.68-5.76-9.6-8.32-6.4-6.4-7.68-10.88-5.12-4.48-5.12-14.72-3.84-7.68c-2.379-5.517-4.574-12.135-6.222-18.966l-89.778-0.874c-0.193 0.005-0.42 0.008-0.647 0.008-14.977 0-27.159-11.963-27.512-26.855l-0.001-96.033c0.354-14.924 12.536-26.888 27.513-26.888 0.228 0 0.455 0.003 0.681 0.008zM128-64h768c35.346 0 64 28.654 64 64v768c0 35.346-28.654 64-64 64h-64v-101.12c-0.362-50.27-41.197-90.882-91.518-90.882-0.226 0-0.451 0.001-0.677 0.002h-455.645c-0.191-0.001-0.416-0.002-0.642-0.002-50.321 0-91.156 40.612-91.518 90.848v101.154h-64c-35.346 0-64-28.654-64-64v-768c0-35.346 28.654-64 64-64zM256 448h512v-64h-512zM256 320h512v-64h-512zM256 192h512v-64h-512z" />
<glyph unicode="&#xe94b;" glyph-name="drag" d="M64 896h128v-128h-128v128zM320 896h128v-128h-128v128zM576 896h128v-128h-128v128zM832 896h128v-128h-128v128zM64 640h128v-128h-128v128zM320 640h128v-128h-128v128zM576 640h128v-128h-128v128zM832 640h128v-128h-128v128zM64 384h128v-128h-128v128zM320 384h128v-128h-128v128zM576 384h128v-128h-128v128zM832 384h128v-128h-128v128zM64 128h128v-128h-128v128zM320 128h128v-128h-128v128zM576 128h128v-128h-128v128zM832 128h128v-128h-128v128z" />
<glyph unicode="&#xe94c;" glyph-name="file" d="M941.44 717.44l-224 224c-11.563 11.472-27.489 18.561-45.070 18.561-0.13 0-0.26 0-0.39-0.001h-543.98c-35.346 0-64-28.654-64-64v-896c0-35.346 28.654-64 64-64h768c35.346 0 64 28.654 64 64v672c0.001 0.11 0.001 0.24 0.001 0.37 0 17.581-7.089 33.507-18.565 45.074z" />
</font>
</defs>
</svg>
